<mxfile host="app.diagrams.net" modified="2023-09-24T00:43:47.863Z" agent="Mozilla/5.0 (Windows NT 10.0; Win64; x64) AppleWebKit/537.36 (KHTML, like Gecko) Chrome/117.0.0.0 Safari/537.36" etag="IAGopM802lIvGjL1fcS9" version="21.8.1" type="github">
  <diagram name="Page-1" id="edf60f1a-56cd-e834-aa8a-f176f3a09ee4">
    <mxGraphModel dx="1173" dy="691" grid="1" gridSize="10" guides="1" tooltips="1" connect="1" arrows="1" fold="1" page="1" pageScale="1" pageWidth="1100" pageHeight="850" background="none" math="0" shadow="0">
      <root>
        <mxCell id="0" />
        <mxCell id="1" parent="0" />
        <mxCell id="f7CogiV2m7Ih5-XFVE7t-22" style="edgeStyle=orthogonalEdgeStyle;rounded=0;orthogonalLoop=1;jettySize=auto;html=1;" edge="1" parent="1">
          <mxGeometry relative="1" as="geometry">
            <mxPoint x="120" y="1320" as="targetPoint" />
            <mxPoint x="210" y="396" as="sourcePoint" />
            <Array as="points">
              <mxPoint x="120" y="396" />
            </Array>
          </mxGeometry>
        </mxCell>
        <mxCell id="f7CogiV2m7Ih5-XFVE7t-23" style="edgeStyle=orthogonalEdgeStyle;rounded=0;orthogonalLoop=1;jettySize=auto;html=1;entryX=0.977;entryY=0.286;entryDx=0;entryDy=0;entryPerimeter=0;" edge="1" parent="1" target="f7CogiV2m7Ih5-XFVE7t-44">
          <mxGeometry relative="1" as="geometry">
            <mxPoint x="350" y="1390" as="targetPoint" />
            <mxPoint x="344.5000000000002" y="725.9999999999999" as="sourcePoint" />
            <Array as="points">
              <mxPoint x="345" y="727" />
              <mxPoint x="728" y="727" />
              <mxPoint x="728" y="1390" />
            </Array>
          </mxGeometry>
        </mxCell>
        <mxCell id="f7CogiV2m7Ih5-XFVE7t-24" style="edgeStyle=orthogonalEdgeStyle;rounded=0;orthogonalLoop=1;jettySize=auto;html=1;entryX=0.5;entryY=0;entryDx=0;entryDy=0;" edge="1" parent="1" source="f7CogiV2m7Ih5-XFVE7t-2" target="f7CogiV2m7Ih5-XFVE7t-9">
          <mxGeometry relative="1" as="geometry" />
        </mxCell>
        <mxCell id="f7CogiV2m7Ih5-XFVE7t-2" value="encerrar = n" style="strokeWidth=2;html=1;shape=mxgraph.flowchart.decision;whiteSpace=wrap;" vertex="1" parent="1">
          <mxGeometry x="208.5" y="346" width="100" height="100" as="geometry" />
        </mxCell>
        <mxCell id="f7CogiV2m7Ih5-XFVE7t-18" style="edgeStyle=orthogonalEdgeStyle;rounded=0;orthogonalLoop=1;jettySize=auto;html=1;" edge="1" parent="1" source="f7CogiV2m7Ih5-XFVE7t-6">
          <mxGeometry relative="1" as="geometry">
            <mxPoint x="400" y="165" as="targetPoint" />
          </mxGeometry>
        </mxCell>
        <mxCell id="f7CogiV2m7Ih5-XFVE7t-6" value="saldo" style="html=1;strokeWidth=2;shape=manualInput;whiteSpace=wrap;rounded=1;size=26;arcSize=11;" vertex="1" parent="1">
          <mxGeometry x="200" y="130" width="117" height="70" as="geometry" />
        </mxCell>
        <mxCell id="f7CogiV2m7Ih5-XFVE7t-19" style="edgeStyle=orthogonalEdgeStyle;rounded=0;orthogonalLoop=1;jettySize=auto;html=1;" edge="1" parent="1" source="f7CogiV2m7Ih5-XFVE7t-7">
          <mxGeometry relative="1" as="geometry">
            <mxPoint x="320" y="270" as="targetPoint" />
            <Array as="points">
              <mxPoint x="457" y="270" />
            </Array>
          </mxGeometry>
        </mxCell>
        <mxCell id="f7CogiV2m7Ih5-XFVE7t-7" value="saldo inicial: &quot; +&lt;br&gt;saldo" style="strokeWidth=2;html=1;shape=mxgraph.flowchart.display;whiteSpace=wrap;" vertex="1" parent="1">
          <mxGeometry x="402" y="130" width="110" height="70" as="geometry" />
        </mxCell>
        <mxCell id="f7CogiV2m7Ih5-XFVE7t-8" value="encerrar = n" style="rounded=1;whiteSpace=wrap;html=1;" vertex="1" parent="1">
          <mxGeometry x="199" y="240" width="120" height="60" as="geometry" />
        </mxCell>
        <mxCell id="f7CogiV2m7Ih5-XFVE7t-25" style="edgeStyle=orthogonalEdgeStyle;rounded=0;orthogonalLoop=1;jettySize=auto;html=1;" edge="1" parent="1" source="f7CogiV2m7Ih5-XFVE7t-9" target="f7CogiV2m7Ih5-XFVE7t-10">
          <mxGeometry relative="1" as="geometry">
            <Array as="points">
              <mxPoint x="259" y="580" />
              <mxPoint x="259" y="580" />
            </Array>
          </mxGeometry>
        </mxCell>
        <mxCell id="f7CogiV2m7Ih5-XFVE7t-9" value="tipo de entrada" style="html=1;strokeWidth=2;shape=manualInput;whiteSpace=wrap;rounded=1;size=26;arcSize=11;" vertex="1" parent="1">
          <mxGeometry x="200.5" y="480" width="117" height="70" as="geometry" />
        </mxCell>
        <mxCell id="f7CogiV2m7Ih5-XFVE7t-26" style="edgeStyle=orthogonalEdgeStyle;rounded=0;orthogonalLoop=1;jettySize=auto;html=1;entryX=0.5;entryY=0;entryDx=0;entryDy=0;entryPerimeter=0;exitX=0.488;exitY=0.984;exitDx=0;exitDy=0;exitPerimeter=0;" edge="1" parent="1" source="f7CogiV2m7Ih5-XFVE7t-10">
          <mxGeometry relative="1" as="geometry">
            <mxPoint x="258.75" y="700.0000000000001" as="targetPoint" />
            <mxPoint x="256.2537593984962" y="648.9999999999999" as="sourcePoint" />
            <Array as="points">
              <mxPoint x="256" y="691" />
              <mxPoint x="259" y="691" />
            </Array>
          </mxGeometry>
        </mxCell>
        <mxCell id="f7CogiV2m7Ih5-XFVE7t-10" value="quantidade" style="html=1;strokeWidth=2;shape=manualInput;whiteSpace=wrap;rounded=1;size=26;arcSize=11;" vertex="1" parent="1">
          <mxGeometry x="199" y="580" width="117" height="70" as="geometry" />
        </mxCell>
        <mxCell id="f7CogiV2m7Ih5-XFVE7t-29" style="edgeStyle=orthogonalEdgeStyle;rounded=0;orthogonalLoop=1;jettySize=auto;html=1;" edge="1" parent="1" source="f7CogiV2m7Ih5-XFVE7t-11">
          <mxGeometry relative="1" as="geometry">
            <mxPoint x="259" y="910" as="targetPoint" />
          </mxGeometry>
        </mxCell>
        <mxCell id="f7CogiV2m7Ih5-XFVE7t-11" value="tipo de entrada = 1" style="strokeWidth=2;html=1;shape=mxgraph.flowchart.decision;whiteSpace=wrap;" vertex="1" parent="1">
          <mxGeometry x="194" y="700" width="130" height="120" as="geometry" />
        </mxCell>
        <mxCell id="f7CogiV2m7Ih5-XFVE7t-12" value="saldo = saldo + quantidade" style="rounded=1;whiteSpace=wrap;html=1;" vertex="1" parent="1">
          <mxGeometry x="360" y="720" width="120" height="60" as="geometry" />
        </mxCell>
        <mxCell id="f7CogiV2m7Ih5-XFVE7t-30" style="edgeStyle=orthogonalEdgeStyle;rounded=0;orthogonalLoop=1;jettySize=auto;html=1;" edge="1" parent="1" source="f7CogiV2m7Ih5-XFVE7t-13">
          <mxGeometry relative="1" as="geometry">
            <mxPoint x="280" y="850" as="targetPoint" />
            <Array as="points">
              <mxPoint x="595" y="850" />
            </Array>
          </mxGeometry>
        </mxCell>
        <mxCell id="f7CogiV2m7Ih5-XFVE7t-13" value="&quot;Entrada: &quot; + quantidade" style="strokeWidth=2;html=1;shape=mxgraph.flowchart.display;whiteSpace=wrap;" vertex="1" parent="1">
          <mxGeometry x="540" y="715" width="110" height="70" as="geometry" />
        </mxCell>
        <mxCell id="f7CogiV2m7Ih5-XFVE7t-17" style="edgeStyle=orthogonalEdgeStyle;rounded=0;orthogonalLoop=1;jettySize=auto;html=1;" edge="1" parent="1" source="f7CogiV2m7Ih5-XFVE7t-14">
          <mxGeometry relative="1" as="geometry">
            <mxPoint x="259.5000000000002" y="120" as="targetPoint" />
          </mxGeometry>
        </mxCell>
        <mxCell id="f7CogiV2m7Ih5-XFVE7t-14" value="inÃ­cio" style="strokeWidth=2;html=1;shape=mxgraph.flowchart.terminator;whiteSpace=wrap;" vertex="1" parent="1">
          <mxGeometry x="199" y="10" width="121" height="60" as="geometry" />
        </mxCell>
        <mxCell id="f7CogiV2m7Ih5-XFVE7t-15" value="tipo de entrada = 2" style="strokeWidth=2;html=1;shape=mxgraph.flowchart.decision;whiteSpace=wrap;" vertex="1" parent="1">
          <mxGeometry x="194.5" y="911" width="130" height="120" as="geometry" />
        </mxCell>
        <mxCell id="f7CogiV2m7Ih5-XFVE7t-33" style="edgeStyle=orthogonalEdgeStyle;rounded=0;orthogonalLoop=1;jettySize=auto;html=1;" edge="1" parent="1" source="f7CogiV2m7Ih5-XFVE7t-16" target="f7CogiV2m7Ih5-XFVE7t-32">
          <mxGeometry relative="1" as="geometry" />
        </mxCell>
        <mxCell id="f7CogiV2m7Ih5-XFVE7t-16" value="saldo &amp;gt;= quantidade" style="strokeWidth=2;html=1;shape=mxgraph.flowchart.decision;whiteSpace=wrap;" vertex="1" parent="1">
          <mxGeometry x="382" y="911" width="108" height="119" as="geometry" />
        </mxCell>
        <mxCell id="f7CogiV2m7Ih5-XFVE7t-21" style="edgeStyle=orthogonalEdgeStyle;rounded=0;orthogonalLoop=1;jettySize=auto;html=1;entryX=0.5;entryY=0;entryDx=0;entryDy=0;entryPerimeter=0;" edge="1" parent="1" source="f7CogiV2m7Ih5-XFVE7t-8" target="f7CogiV2m7Ih5-XFVE7t-2">
          <mxGeometry relative="1" as="geometry" />
        </mxCell>
        <mxCell id="f7CogiV2m7Ih5-XFVE7t-27" style="edgeStyle=orthogonalEdgeStyle;rounded=0;orthogonalLoop=1;jettySize=auto;html=1;entryX=-0.022;entryY=0.662;entryDx=0;entryDy=0;entryPerimeter=0;" edge="1" parent="1" source="f7CogiV2m7Ih5-XFVE7t-11" target="f7CogiV2m7Ih5-XFVE7t-12">
          <mxGeometry relative="1" as="geometry" />
        </mxCell>
        <mxCell id="f7CogiV2m7Ih5-XFVE7t-28" style="edgeStyle=orthogonalEdgeStyle;rounded=0;orthogonalLoop=1;jettySize=auto;html=1;entryX=0;entryY=0.5;entryDx=0;entryDy=0;entryPerimeter=0;" edge="1" parent="1" source="f7CogiV2m7Ih5-XFVE7t-12" target="f7CogiV2m7Ih5-XFVE7t-13">
          <mxGeometry relative="1" as="geometry" />
        </mxCell>
        <mxCell id="f7CogiV2m7Ih5-XFVE7t-31" style="edgeStyle=orthogonalEdgeStyle;rounded=0;orthogonalLoop=1;jettySize=auto;html=1;entryX=0;entryY=0.5;entryDx=0;entryDy=0;entryPerimeter=0;" edge="1" parent="1" source="f7CogiV2m7Ih5-XFVE7t-15" target="f7CogiV2m7Ih5-XFVE7t-16">
          <mxGeometry relative="1" as="geometry" />
        </mxCell>
        <mxCell id="f7CogiV2m7Ih5-XFVE7t-32" value="saldo = saldo - quantidade" style="rounded=1;whiteSpace=wrap;html=1;" vertex="1" parent="1">
          <mxGeometry x="550" y="941" width="120" height="60" as="geometry" />
        </mxCell>
        <mxCell id="f7CogiV2m7Ih5-XFVE7t-39" style="edgeStyle=orthogonalEdgeStyle;rounded=0;orthogonalLoop=1;jettySize=auto;html=1;" edge="1" parent="1">
          <mxGeometry relative="1" as="geometry">
            <mxPoint x="272" y="1160" as="targetPoint" />
            <mxPoint x="597" y="1130" as="sourcePoint" />
            <Array as="points">
              <mxPoint x="597" y="1160" />
              <mxPoint x="302" y="1160" />
            </Array>
          </mxGeometry>
        </mxCell>
        <mxCell id="f7CogiV2m7Ih5-XFVE7t-34" value="&quot;SaÃ­da: &quot; + quantidade" style="strokeWidth=2;html=1;shape=mxgraph.flowchart.display;whiteSpace=wrap;" vertex="1" parent="1">
          <mxGeometry x="560" y="1060" width="110" height="70" as="geometry" />
        </mxCell>
        <mxCell id="f7CogiV2m7Ih5-XFVE7t-41" style="edgeStyle=orthogonalEdgeStyle;rounded=0;orthogonalLoop=1;jettySize=auto;html=1;" edge="1" parent="1">
          <mxGeometry relative="1" as="geometry">
            <mxPoint x="271.69072164948454" y="1150" as="targetPoint" />
            <mxPoint x="447.5000000000001" y="1130" as="sourcePoint" />
            <Array as="points">
              <mxPoint x="462" y="1130" />
              <mxPoint x="462" y="1150" />
              <mxPoint x="452" y="1150" />
            </Array>
          </mxGeometry>
        </mxCell>
        <mxCell id="f7CogiV2m7Ih5-XFVE7t-35" value="&quot;Saldo insuficiente" style="strokeWidth=2;html=1;shape=mxgraph.flowchart.display;whiteSpace=wrap;" vertex="1" parent="1">
          <mxGeometry x="392" y="1060" width="110" height="70" as="geometry" />
        </mxCell>
        <mxCell id="f7CogiV2m7Ih5-XFVE7t-43" style="edgeStyle=orthogonalEdgeStyle;rounded=0;orthogonalLoop=1;jettySize=auto;html=1;" edge="1" parent="1" source="f7CogiV2m7Ih5-XFVE7t-36">
          <mxGeometry relative="1" as="geometry">
            <mxPoint x="257.5" y="1270.0000000000002" as="targetPoint" />
          </mxGeometry>
        </mxCell>
        <mxCell id="f7CogiV2m7Ih5-XFVE7t-36" value="saldo" style="strokeWidth=2;html=1;shape=mxgraph.flowchart.display;whiteSpace=wrap;" vertex="1" parent="1">
          <mxGeometry x="202.5" y="1170" width="110" height="70" as="geometry" />
        </mxCell>
        <mxCell id="f7CogiV2m7Ih5-XFVE7t-37" style="edgeStyle=orthogonalEdgeStyle;rounded=0;orthogonalLoop=1;jettySize=auto;html=1;entryX=0.5;entryY=0;entryDx=0;entryDy=0;entryPerimeter=0;exitX=0.5;exitY=1;exitDx=0;exitDy=0;exitPerimeter=0;" edge="1" parent="1" source="f7CogiV2m7Ih5-XFVE7t-16">
          <mxGeometry relative="1" as="geometry">
            <mxPoint x="425" y="1030" as="sourcePoint" />
            <mxPoint x="436" y="1060" as="targetPoint" />
          </mxGeometry>
        </mxCell>
        <mxCell id="f7CogiV2m7Ih5-XFVE7t-38" style="edgeStyle=orthogonalEdgeStyle;rounded=0;orthogonalLoop=1;jettySize=auto;html=1;entryX=0.446;entryY=-0.027;entryDx=0;entryDy=0;entryPerimeter=0;" edge="1" parent="1" source="f7CogiV2m7Ih5-XFVE7t-32" target="f7CogiV2m7Ih5-XFVE7t-34">
          <mxGeometry relative="1" as="geometry" />
        </mxCell>
        <mxCell id="f7CogiV2m7Ih5-XFVE7t-40" style="edgeStyle=orthogonalEdgeStyle;rounded=0;orthogonalLoop=1;jettySize=auto;html=1;entryX=0.523;entryY=0.143;entryDx=0;entryDy=0;entryPerimeter=0;" edge="1" parent="1">
          <mxGeometry relative="1" as="geometry">
            <mxPoint x="259.4918032786886" y="1021" as="sourcePoint" />
            <mxPoint x="260.03" y="1170.01" as="targetPoint" />
          </mxGeometry>
        </mxCell>
        <mxCell id="f7CogiV2m7Ih5-XFVE7t-42" value="encerra? (s/n)" style="html=1;strokeWidth=2;shape=manualInput;whiteSpace=wrap;rounded=1;size=26;arcSize=11;" vertex="1" parent="1">
          <mxGeometry x="209" y="1275" width="100" height="60" as="geometry" />
        </mxCell>
        <mxCell id="f7CogiV2m7Ih5-XFVE7t-45" style="edgeStyle=orthogonalEdgeStyle;rounded=0;orthogonalLoop=1;jettySize=auto;html=1;" edge="1" parent="1" source="f7CogiV2m7Ih5-XFVE7t-44">
          <mxGeometry relative="1" as="geometry">
            <mxPoint x="257.4999999999999" y="1480.0000000000002" as="targetPoint" />
          </mxGeometry>
        </mxCell>
        <mxCell id="f7CogiV2m7Ih5-XFVE7t-44" value="&quot;sistema encerrado" style="strokeWidth=2;html=1;shape=mxgraph.flowchart.display;whiteSpace=wrap;" vertex="1" parent="1">
          <mxGeometry x="202.5" y="1370" width="110" height="70" as="geometry" />
        </mxCell>
        <mxCell id="f7CogiV2m7Ih5-XFVE7t-46" value="fim" style="strokeWidth=2;html=1;shape=mxgraph.flowchart.terminator;whiteSpace=wrap;" vertex="1" parent="1">
          <mxGeometry x="197" y="1480" width="121" height="60" as="geometry" />
        </mxCell>
      </root>
    </mxGraphModel>
  </diagram>
</mxfile>
